<svg xmlns="http://www.w3.org/2000/svg" width="135" height="40" viewBox="0 0 135 40" fill="none"><path d="M130.1 40H4.8A4.737 4.737 0 0 1 0 35.2V4.8A4.737 4.737 0 0 1 4.8 0h125.4a4.8 4.8 0 0 1 4.8 4.8v30.5a4.865 4.865 0 0 1-4.9 4.7Z" fill="#A6A6A6"/><path d="M130.099 39H4.799A3.8 3.8 0 0 1 1 35.2V4.8A3.8 3.8 0 0 1 4.8 1h125.4a3.799 3.799 0 0 1 3.8 3.8v30.5a3.932 3.932 0 0 1-3.9 3.7Z" fill="#000"/><path fill-rule="evenodd" clip-rule="evenodd" d="M100.857 13.035v.02h1.33a3.59 3.59 0 0 0 .67-.06c.202-.046.395-.127.57-.24.171-.122.312-.283.41-.47.108-.236.169-.49.18-.75v-.25c.009-.15.009-.3 0-.45a3.497 3.497 0 0 0-.09-.43 1.864 1.864 0 0 0-.16-.38 1.234 1.234 0 0 0-.24-.31 1.382 1.382 0 0 0-.35-.22 1.645 1.645 0 0 0-.47-.09 1.253 1.253 0 0 0-1.26.86c-.07.165-.104.342-.1.52-.008.205.037.408.13.59a.993.993 0 0 0 .37.4c.18.108.381.177.59.2.259.03.52.03.78 0a.49.49 0 0 1-.26.23 1.613 1.613 0 0 1-.3.08 2.993 2.993 0 0 1-.46 0h-1.14a.17.17 0 0 0-.1 0l-1.4-.03a.13.13 0 0 0-.1 0 .169.169 0 0 0-.006.027l-1.184-.025v-.002h-.06a.132.132 0 0 0-.1 0h-.23a.312.312 0 0 1-.12-.05.25.25 0 0 1-.12-.08.38.38 0 0 1-.09-.13.59.59 0 0 1 0-.2v-1h-.83v1.12a.33.33 0 0 1-.07.24.35.35 0 0 1-.19.1 1 1 0 0 1-.31 0h-3.88a.24.24 0 0 1-.13-.07.31.31 0 0 1-.11-.14.63.63 0 0 1 0-.26 1.906 1.906 0 0 1 0-.2v-.26l.06-.25c.07-.08.07-.15.07-.21l-.39-.12-.39-.13c0 .005.004.012.01.021.019.03.05.078-.01.14-.042.04-.043.085-.044.135a.287.287 0 0 1-.037.154c-.07.12-.07.24-.07.36-.013.12-.013.24 0 .36a1.225 1.225 0 0 0 0 .34c.036.175.111.34.22.48.039.054.082.105.13.15a1 1 0 0 0 .38.24c.148.052.304.079.46.08h3.7a1.46 1.46 0 0 0 1-.3.8.8 0 0 0 .21.15l.24.09.26.05h.44v-.03h1.276c.015.003.03.003.044 0h.01a.13.13 0 0 0 .1 0h1.161Zm1.65-2.82a.868.868 0 0 1 .23 0 .593.593 0 0 1 .31.06c.07.063.125.142.16.23.037.097.064.198.08.3v.3a1.56 1.56 0 0 1-.86 0 .418.418 0 0 1-.3-.41.394.394 0 0 1 .05-.22.417.417 0 0 1 .13-.16.466.466 0 0 1 .2-.1Z" fill="#fff"/><path d="m102.587 7.545-.58.6.59.6.6-.59-.61-.61Zm-45.844.327a.5.5 0 0 0-.146.353.45.45 0 0 0 .16.32.56.56 0 0 0 .72 0 .45.45 0 0 0 .12-.32.5.5 0 0 0-.854-.353Zm-.096 5.133h.85v-3.8h-.85v3.8Zm-2.98.05h-.82v-4.71h.82v4.71Zm-1.711-.2a2.66 2.66 0 0 1-.16.82 1.869 1.869 0 0 1-.41.61 1.72 1.72 0 0 1-.62.39 2.412 2.412 0 0 1-.83.14h-.41v-.82h.41c.182.004.364-.017.54-.06a.83.83 0 0 0 .38-.21.91.91 0 0 0 .22-.37 2.33 2.33 0 0 0 .07-.57v-2h.81v2.07Zm-1-3.47.59-.6.6.6-.6.6-.59-.6Z" fill="#fff"/><path fill-rule="evenodd" clip-rule="evenodd" d="M62.507 10.585c.007.454-.081.904-.26 1.32a1.93 1.93 0 0 1-.74.87 2.2 2.2 0 0 1-2.22 0 1.911 1.911 0 0 1-.75-.86 3.002 3.002 0 0 1-.27-1.3v-.33c-.008-.453.08-.903.26-1.32a2.09 2.09 0 0 1 .75-.88 2.2 2.2 0 0 1 2.22 0c.324.21.581.508.74.86.19.42.282.879.27 1.34v.3Zm-.89-.3a2.27 2.27 0 0 0-.32-1.3 1.05 1.05 0 0 0-.91-.45 1 1 0 0 0-.9.45 2.22 2.22 0 0 0-.34 1.3v.29c-.024.457.09.91.33 1.3a1.06 1.06 0 0 0 .92.46 1 1 0 0 0 .9-.45c.237-.394.349-.85.32-1.31v-.29Z" fill="#fff"/><path d="M65.921 11.405c.042.091.061.19.056.29a.61.61 0 0 1-.19.49 1.08 1.08 0 0 1-.7.19 1.28 1.28 0 0 1-.83-.24.822.822 0 0 1-.28-.67h-.89c-.009.3.08.594.25.84.19.25.441.446.73.57.317.132.656.2 1 .2a2.14 2.14 0 0 0 1.33-.37 1.21 1.21 0 0 0 .49-1 1.41 1.41 0 0 0-.17-.69 1.55 1.55 0 0 0-.53-.52 4 4 0 0 0-1-.4 2.901 2.901 0 0 1-.85-.37.54.54 0 0 1-.26-.47.63.63 0 0 1 .24-.52 1.09 1.09 0 0 1 .67-.18c.259-.018.515.06.72.22a.82.82 0 0 1 .25.63h.88c0-.283-.08-.56-.23-.8a1.58 1.58 0 0 0-.66-.56 2.1 2.1 0 0 0-.95-.2 2 2 0 0 0-1.31.4 1.24 1.24 0 0 0-.5 1 1.3 1.3 0 0 0 .7 1.14c.313.183.65.324 1 .42.303.07.591.196.85.37.08.06.142.14.184.23Z" fill="#fff"/><path fill-rule="evenodd" clip-rule="evenodd" d="M73.056 13.055h-.09a2.637 2.637 0 0 1-.49 0 2 2 0 0 1-.43-.15 1.448 1.448 0 0 1-.36-.25 1.298 1.298 0 0 1-.25-.37.801.801 0 0 1-.2.21 1.2 1.2 0 0 1-.27.16 1.4 1.4 0 0 1-.29.09h-.3a1.33 1.33 0 0 1-.49-.09 1.15 1.15 0 0 1-.41-.26 1.202 1.202 0 0 1-.28-.41 1.352 1.352 0 0 1-.11-.55 1.38 1.38 0 0 1 .14-.62 1.8 1.8 0 0 1 .35-.47 2.46 2.46 0 0 1 .52-.34c.193-.093.39-.177.59-.25l-.07-.31.79-.19.6 2.32a.732.732 0 0 0 .17.34.816.816 0 0 0 .26.2c.087.05.182.08.28.09h.34v.08h.77c.232 0 .464-.023.69-.07.24-.04.478-.098.71-.17.23-.058.454-.135.67-.23.192-.072.38-.155.56-.25l-.33-.1-.39-.18-.36-.1-.33-.09-.29-.06a.719.719 0 0 0-.19 0h-.13a.24.24 0 0 0-.11.06.442.442 0 0 0-.08.11.482.482 0 0 0-.08.16l-.75-.23c.04-.127.09-.25.15-.37.059-.11.133-.21.22-.3a.93.93 0 0 1 .69-.27l.26.09.35.1.43.13.46.16.44.16.39.14.29.11h.15l.11.67-.11.07-.24.16a.564.564 0 0 0 .1.15l.14.08h.83v.044l1.095.023a.176.176 0 0 1 .005-.027.13.13 0 0 1 .1 0l1.4.03a.17.17 0 0 1 .1 0h.21c.103.013.208.013.31 0a.67.67 0 0 0 .19-.1.42.42 0 0 0 .09-.16 1.214 1.214 0 0 0 0-.2v-1h.81v.94a.509.509 0 0 0 .13.38.59.59 0 0 0 .41.13h.12a.37.37 0 0 0 .25-.22.578.578 0 0 0 .05-.25v-1h.81v.94a.5.5 0 0 0 .13.39.57.57 0 0 0 .45.15.41.41 0 0 0 .16 0 .291.291 0 0 0 .14-.08.564.564 0 0 0 .1-.15.65.65 0 0 0 0-.22v-1h.81v1a.472.472 0 0 0 .15.37.78.78 0 0 0 .45.11h.19v-.03h1a.471.471 0 0 0 .15-.06.642.642 0 0 0 .13-.15.678.678 0 0 0 0-.27c.005-.06.005-.12 0-.18v-.69c0-.07 0-.14-.05-.2a1.09 1.09 0 0 0 0-.14l.64-.31v.31c.007.09.007.18 0 .27l.06.31v.55c.003.2-.035.396-.11.58a1.33 1.33 0 0 1-.29.41 1.27 1.27 0 0 1-.41.23 1.162 1.162 0 0 1-.45.08h-.54v.1h-.32a2.002 2.002 0 0 1-.58-.07 1.07 1.07 0 0 1-.43-.24 1.092 1.092 0 0 1-.39.23 1.213 1.213 0 0 1-.46.08 1.703 1.703 0 0 1-.53-.07 1.06 1.06 0 0 1-.41-.24 1.48 1.48 0 0 1-.38.23 1.31 1.31 0 0 1-.43.08 1.461 1.461 0 0 1-.95-.3 1.59 1.59 0 0 1-1 .3h-.42v-.09h-1.15a.13.13 0 0 1-.1 0h-.01a.111.111 0 0 1-.044 0h-1.305a.112.112 0 0 1-.073-.01h-.407a1.48 1.48 0 0 1-.7-.17 1.22 1.22 0 0 1-.48-.5l-.54.24c-.2.084-.404.157-.61.22-.21.06-.43.11-.65.15-.222.04-.446.06-.67.06h-.77v.03Zm-2-1.62a.588.588 0 0 0 0-.19 1.23 1.23 0 0 0 0-.19c0-.07 0-.15-.07-.23-.033-.038-.034-.08-.036-.123a.21.21 0 0 0-.044-.147c-.282.082-.55.21-.79.38a.63.63 0 0 0-.27.52.371.371 0 0 0 .06.21.36.36 0 0 0 .14.16.56.56 0 0 0 .19.09c.07.015.141.015.21 0a.991.991 0 0 0 .41-.14.53.53 0 0 0 .19-.34h.01Z" fill="#fff"/><path d="m74.406 8.295-.58.59.59.6.6-.59-.61-.6Zm13.4.08-.59.59.59.6.6-.59-.6-.6Zm5.851 2.15-.55-.55.54-.57.56.57-.55.55Zm1.37 0-.55-.56.54-.56.57.56-.56.56Zm11.37 2.53a3.797 3.797 0 0 1-.62 0 1.558 1.558 0 0 1-.43-.13.78.78 0 0 1-.28-.22 1.061 1.061 0 0 1-.17-.32 2.172 2.172 0 0 1-.07-.4v-3.64h.82v3.09c-.013.14-.013.28 0 .42a.435.435 0 0 0 .09.25.448.448 0 0 0 .23.11c.143.013.286.013.43 0v.07h1.41a.48.48 0 0 0 .15-.06.986.986 0 0 0 .13-.15.712.712 0 0 0 .05-.27c.004-.06.004-.12 0-.18v-.22c.004-.08.004-.16 0-.24v-.57l.6-.31a.335.335 0 0 1 0 .1v1.34c.002.2-.036.396-.11.58-.071.154-.17.293-.29.41-.122.102-.261.18-.41.23a1.198 1.198 0 0 1-.45.08h-1.08v.03Zm-.02 1.23.6.52.5-.52-.56-.56-.54.56Zm1.36 0 .61.52.49-.52-.56-.56-.54.56Zm3.85-1.43c-.013.28-.071.558-.17.82a1.866 1.866 0 0 1-.4.61c-.18.174-.395.306-.63.39a2.378 2.378 0 0 1-.83.14h-.4v-.82h.4c.185.003.369-.017.55-.06a.753.753 0 0 0 .37-.21.924.924 0 0 0 .22-.37 1.95 1.95 0 0 0 .04-.57v-2h.82l.03 2.07Zm1.82.21a3.09 3.09 0 0 0 .54-.09c.199-.034.39-.109.56-.22a1.006 1.006 0 0 0 .44-.95 1.38 1.38 0 0 0-.21-.52l-.46-.46-.26-.39-.17-.25-.1-.15v-.07l-.23-.34-.68.45 1.22 1.77a.518.518 0 0 1 .081.205.148.148 0 0 1-.011.055.332.332 0 0 1-.26.19 1.431 1.431 0 0 1-.47 0 3.37 3.37 0 0 1-.58-.1 5.686 5.686 0 0 1-.59-.17l-.23.78.39.12.27.08.26.06h.49Z" fill="#fff"/><path fill-rule="evenodd" clip-rule="evenodd" d="M75.18 23.07h4.64a2.65 2.65 0 0 1 2.61 2.69h-7.28a3.89 3.89 0 0 1-1.77-.43 4 4 0 0 1-6.39 1.29 4 4 0 0 1-2.69 1.05 3.85 3.85 0 0 1-1.7-.39 6.92 6.92 0 0 1-7.49 4.79 7.07 7.07 0 0 1-6-7.09v-4.91a2.64 2.64 0 0 1 2.68 2.6v2.34a4.38 4.38 0 0 0 3.83 4.42h.41a4.262 4.262 0 0 0 4.27-4.25V20h2.65v3.6a1.38 1.38 0 0 0 2.76 0V20h2.65v3.64a.877.877 0 0 0 0 .23 1.38 1.38 0 0 0 2.75-.23v-3.63h2.69v1.7a1.369 1.369 0 0 0 1.38 1.36Zm35.94 8.227a2.648 2.648 0 0 1-1.87.773v-7.64h2.65v5a2.65 2.65 0 0 1-.78 1.867Zm-26.38.713a2.65 2.65 0 0 0 2.65-2.64v-9.36h-2.65v12Zm19.86-9.38h-2a.82.82 0 0 0-.68.24 1.082 1.082 0 0 0 0 1.43.999.999 0 0 0 .66.27h4.59v.72a7.41 7.41 0 0 1-14.79-.53v-4.75h2.73v4.7a4.7 4.7 0 0 0 4.75 4.62 4.773 4.773 0 0 0 4-2.21h-1.24a3.529 3.529 0 0 1-2.51-1.05 3.461 3.461 0 0 1-1.06-2.48 3.61 3.61 0 0 1 1.06-2.52 3.462 3.462 0 0 1 2.46-1.07h4.69a2.647 2.647 0 0 1-2.66 2.63Zm-24.36 5.09h-4.29a2.15 2.15 0 0 0 2.16 2.15h2.18v2.2a2.15 2.15 0 0 0 2.15-2.12v-2.23h-2.2Zm29.54-6.94a2.631 2.631 0 0 1 1.86-.77v.06h5.29a2.633 2.633 0 0 1-2.63 2.57h-5.29c0-.698.277-1.367.77-1.86Z" fill="#fff"/><path d="M27.66 8H14.34A5.34 5.34 0 0 0 9 13.34v13.32A5.34 5.34 0 0 0 14.34 32h13.32A5.34 5.34 0 0 0 33 26.66V13.34A5.34 5.34 0 0 0 27.66 8Z" fill="#fff"/><path d="M24.25 14a4.73 4.73 0 0 0 1.12-3.44 4.86 4.86 0 0 0-3.18 1.63 4.55 4.55 0 0 0-1.12 3.31 4 4 0 0 0 3.18-1.5Z" fill="url(#a)"/><path fill-rule="evenodd" clip-rule="evenodd" d="M21 19.78c.03 0 1.8-1.59 1.8-1.59a8.89 8.89 0 0 1 6.1-2.74H33v11.21A5.34 5.34 0 0 1 27.66 32H14.34A5.34 5.34 0 0 1 9 26.66V15.45h4.07a8.89 8.89 0 0 1 6.09 2.71s1.81 1.62 1.84 1.62Zm-2.462 6.144a6.28 6.28 0 0 0 2.432.486 6.301 6.301 0 0 0 2.42-.51 6.38 6.38 0 0 0 3.93-5.9 1 1 0 0 0-.84-.84.94.94 0 0 0-1 .84v.6a4.51 4.51 0 0 1-9-.6.94.94 0 1 0-1.88 0 6.378 6.378 0 0 0 3.938 5.924Z" fill="url(#b)"/><defs><linearGradient id="a" x1="21.02" y1="13.03" x2="25.39" y2="13.03" gradientUnits="userSpaceOnUse"><stop stop-color="#1767E6"/><stop offset=".64" stop-color="#14BBF2"/></linearGradient><linearGradient id="b" x1="601.56" y1="197.003" x2="749.205" y2="671.707" gradientUnits="userSpaceOnUse"><stop stop-color="#1767E6"/><stop offset=".64" stop-color="#14BBF2"/></linearGradient></defs></svg>