<svg xmlns="http://www.w3.org/2000/svg" width="1.25rem" height="1.25rem" viewBox="0 0 20 20" fill="none"><path d="m8.739 1.368-1.68-.44a2.84 2.84 0 0 0-3.473 2.015l-.424 1.59a8.697 8.697 0 0 1 5.577-3.165ZM1.342 11.381.93 12.937a2.836 2.836 0 0 0 2.016 3.471l1.61.43a8.693 8.693 0 0 1-3.213-5.457Zm15.717-7.8-1.81-.48a8.69 8.69 0 0 1 3.329 5.82l.496-1.877a2.836 2.836 0 0 0-2.015-3.463Zm-5.843 15.024 1.731.467a2.841 2.841 0 0 0 3.473-2.015l.488-1.835a8.702 8.702 0 0 1-5.692 3.383Z" fill="#676A70"/><path d="M10.001 2.05a7.955 7.955 0 0 0-7.347 4.906 7.944 7.944 0 0 0 1.724 8.661 7.953 7.953 0 0 0 13.575-5.62c0-2.108-.838-4.13-2.329-5.62a7.955 7.955 0 0 0-5.623-2.327ZM5.498 6.014a2.269 2.269 0 0 1 3.085-1.672 2.27 2.27 0 1 1-3.085 1.672ZM8.8 12.881a2.269 2.269 0 0 1-3.086 1.669A2.27 2.27 0 1 1 8.8 12.88Zm.964-1.838a1.009 1.009 0 1 1 .383-1.981 1.009 1.009 0 0 1-.383 1.981Zm4.737 2.932a2.269 2.269 0 0 1-3.086 1.672 2.27 2.27 0 1 1 3.086-1.672ZM12.999 9.77a2.27 2.27 0 0 1-.843-4.107 2.271 2.271 0 1 1 .843 4.11V9.77Z" fill="#676A70"/></svg>