<svg xmlns="http://www.w3.org/2000/svg" width="1.25rem" height="1.25rem" viewBox="0 0 20 20" fill="none"><path d="M10.001 5.727A4.266 4.266 0 0 0 5.73 10a4.266 4.266 0 0 0 4.272 4.273A4.266 4.266 0 0 0 14.273 10a4.266 4.266 0 0 0-4.272-4.273Zm0 7.051A2.783 2.783 0 0 1 7.224 10 2.78 2.78 0 0 1 10 7.222 2.78 2.78 0 0 1 12.78 10 2.783 2.783 0 0 1 10 12.778Zm5.444-7.226a.994.994 0 0 1-.997.997.997.997 0 1 1 .996-.997Zm2.83 1.012c-.064-1.335-.369-2.518-1.347-3.492-.974-.975-2.156-1.28-3.491-1.347-1.376-.078-5.5-.078-6.875 0-1.331.064-2.514.369-3.491 1.343-.978.974-1.28 2.157-1.346 3.492-.079 1.376-.079 5.5 0 6.876.063 1.335.368 2.518 1.346 3.493.977.974 2.156 1.279 3.49 1.346 1.377.078 5.5.078 6.876 0 1.335-.063 2.517-.368 3.491-1.346.974-.975 1.28-2.157 1.346-3.493.078-1.376.078-5.496 0-6.872Zm-1.778 8.349a2.812 2.812 0 0 1-1.584 1.584c-1.097.435-3.7.335-4.912.335-1.212 0-3.818.097-4.911-.335a2.812 2.812 0 0 1-1.584-1.584c-.435-1.097-.335-3.7-.335-4.913 0-1.212-.097-3.82.335-4.913A2.81 2.81 0 0 1 5.09 3.503c1.096-.435 3.7-.335 4.911-.335 1.212 0 3.819-.096 4.912.335.729.29 1.29.852 1.584 1.584.435 1.097.334 3.7.334 4.913s.1 3.82-.334 4.913Z" fill="#676A70"/></svg>