<svg xmlns="http://www.w3.org/2000/svg" width="8.4375rem" height="2.5625rem" viewBox="0 0 135 41" fill="none"><g clip-path="url(#a)"><path d="M0 4.668a4 4 0 0 1 4-4h127a4 4 0 0 1 4 4v32a4 4 0 0 1-4 4H4a4 4 0 0 1-4-4v-32Z" fill="#000"/><path d="M22.5 6.336c1.25 0 2.435.616 3.34 1.733.814 1.007 1.285 2.142 1.732 3.246l.044.108c.122.301.236.585.357.866.227.525.441 1.025.648 1.514l.142.012c1.021.09 1.903.201 2.665.324.605.097 1.134.202 1.597.312 1.545.364 2.35.77 2.765 1.067l.003.002a.497.497 0 0 1 .2.47l-.195 1.477c-.349 2.594-.774 5.858-1.873 8.818-.155.416-.322.825-.505 1.225a12.115 12.115 0 0 1-8.16 6.571c-.887.208-1.812.318-2.762.318-.954 0-1.882-.11-2.773-.319a12.126 12.126 0 0 1-8.067-6.403 18.118 18.118 0 0 1-.637-1.543c-.485-1.336-.835-2.73-1.105-4.095-.358-1.805-.574-3.557-.778-5.049l-.134-.997a.5.5 0 0 1 .201-.47l.007-.005c.414-.297 1.22-.703 2.764-1.067.462-.11.99-.215 1.592-.31a37.401 37.401 0 0 1 2.812-.338c.207-.489.42-.989.647-1.514.121-.28.236-.565.358-.866l.044-.11c.447-1.104.92-2.238 1.732-3.244.904-1.117 2.09-1.733 3.34-1.733Zm0 2.407c-.686 0-1.214.526-1.468.84a5.785 5.785 0 0 0-.526.783c-.339.596-.609 1.265-.89 1.96-.122.3-.247.61-.379.916-.058.134-.115.266-.17.397a87.124 87.124 0 0 1 3.433-.064c1.256 0 2.397.023 3.434.064l-.17-.397a43.744 43.744 0 0 1-.379-.916c-.28-.695-.552-1.363-.89-1.959a5.71 5.71 0 0 0-.527-.784c-.254-.314-.782-.84-1.468-.84Z" fill="url(#b)"/><path fill-rule="evenodd" clip-rule="evenodd" d="M131 1.668H4a3 3 0 0 0-3 3v32a3 3 0 0 0 3 3h127a3 3 0 0 0 3-3v-32a3 3 0 0 0-3-3Zm-127-1a4 4 0 0 0-4 4v32a4 4 0 0 0 4 4h127a4 4 0 0 0 4-4v-32a4 4 0 0 0-4-4H4Z" fill="#A6A6A6"/><path d="M106.309 17.767a.781.781 0 0 1-.31.06.815.815 0 0 1-.83-.82.753.753 0 0 1 .24-.57.811.811 0 0 1 .59-.24.781.781 0 0 1 .57.24.747.747 0 0 1 .24.57.824.824 0 0 1-.5.76Zm-16.43-.989h-1.02v6.8h1.02v-6.8Zm-3.494.774c.1-.04.207-.058.314-.054a.779.779 0 0 1 .58.23.83.83 0 0 1-.264 1.334.8.8 0 0 1-.896-.184.81.81 0 0 1 .266-1.326Zm-.425 6.728a1.36 1.36 0 0 0 .109-.612v-3.41h1.12v3.13c.005.391-.06.78-.19 1.15a2.71 2.71 0 0 1-.53.92 2.46 2.46 0 0 1-.84.61 2.49 2.49 0 0 1-1.1.21h-.87l-.2-1.09h.67a2.16 2.16 0 0 0 1.46-.41 1.36 1.36 0 0 0 .37-.499Zm11.2-4.953a.73.73 0 0 1-.77-.15.69.69 0 0 1-.201-.48.73.73 0 0 1 .2-.51.69.69 0 0 1 .51-.21.63.63 0 0 1 .48.21.69.69 0 0 1 .2.51.65.65 0 0 1-.2.48.658.658 0 0 1-.22.15Zm1.619.051a.7.7 0 0 0 .5-.2.69.69 0 0 0 .2-.48.73.73 0 0 0-.2-.51.67.67 0 0 0-.5-.21.65.65 0 0 0-.49.21.688.688 0 0 0-.2.51.65.65 0 0 0 .2.48.68.68 0 0 0 .49.2Z" fill="#fff"/><path fill-rule="evenodd" clip-rule="evenodd" d="M107.549 19.088a1.852 1.852 0 0 0-.6-.51 1.789 1.789 0 0 0-.84-.19 1.858 1.858 0 0 0-.73.13 1.71 1.71 0 0 0-.57.37 1.757 1.757 0 0 0-.37.56c-.09.222-.134.46-.13.7-.015.404.097.803.32 1.14a1.205 1.205 0 0 0 1 .47l1.37.05a.792.792 0 0 1-.13.48.81.81 0 0 1-.65.2h-3a1.361 1.361 0 0 1-.63-.15.612.612 0 0 1-.28-.59v-1.49h-1.09v1.41c.016.208-.029.417-.13.6-.08.13-.27.19-.55.19h-5a.91.91 0 0 1-.61-.17.82.82 0 0 1-.23-.62v-1.41h-1v1.6a1.87 1.87 0 0 0 .38 1.27 1.4 1.4 0 0 0 1.14.45h5.61a1.41 1.41 0 0 0 1-.39c.19.158.417.265.66.31.257.052.518.079.78.08h3.18a1.37 1.37 0 0 0 .72-.18 1.35 1.35 0 0 0 .51-.47c.143-.21.244-.443.3-.69.069-.268.102-.544.1-.82v-.75a2.478 2.478 0 0 0-.13-.81 2.048 2.048 0 0 0-.4-.77Zm-1.66 1.58a1.58 1.58 0 0 1-.46-.1.38.38 0 0 1-.23-.39.673.673 0 0 1 .223-.557.676.676 0 0 1 .577-.163.73.73 0 0 1 .42.11c.125.07.235.165.32.28.091.124.162.263.21.41.051.145.078.297.08.45l-1.14-.04Z" fill="#fff"/><path d="M111.657 24.77a.67.67 0 0 1 .272-.052.654.654 0 0 1 .49.21.627.627 0 0 1 .2.48.684.684 0 0 1-.2.5.651.651 0 0 1-.49.21.669.669 0 0 1-.5-.21.721.721 0 0 1-.149-.76.654.654 0 0 1 .149-.22.672.672 0 0 1 .228-.158Zm2.392-3.102c.005.103.005.207 0 .31a.526.526 0 0 1-.35.42 1.271 1.271 0 0 1-.43.06h-1.66a1 1 0 0 1-.59-.15.836.836 0 0 1-.22-.69v-4.84h-1.1v5.06a1.671 1.671 0 0 0 .48 1.33 1.89 1.89 0 0 0 1.28.41h2.09a1.441 1.441 0 0 0 1.18-.47c.275-.357.413-.8.39-1.25v-1.6h-1.09l.02 1.41Zm-.628 3.099a.659.659 0 0 1 .278-.05h.01a.702.702 0 0 1 .68.69.722.722 0 0 1-.428.66.691.691 0 0 1-.772-.16.684.684 0 0 1-.2-.5.627.627 0 0 1 .2-.48.661.661 0 0 1 .232-.16Zm4.088-1.099a1.35 1.35 0 0 1-.48 1.11 2.18 2.18 0 0 1-1.46.41h-.27l.18 1.09h.48c.38.006.758-.066 1.11-.21.32-.141.607-.35.84-.61a3.07 3.07 0 0 0 .53-.92c.122-.371.183-.76.18-1.15v-3.13h-1.11v3.41Zm7-2.69c.169.174.304.377.4.6.075.174.119.36.13.55a1.31 1.31 0 0 1-.4 1 1.55 1.55 0 0 1-1.17.41h-3.31l-.14-1.07h3.47a.521.521 0 0 0 .38-.12.38.38 0 0 0 .13-.28.558.558 0 0 0-.19-.4l-2.38-2.49.71-.72 2.37 2.52Zm-67.894 4.96a2.105 2.105 0 0 1-2.105-2.105V13.508a2.105 2.105 0 0 1 4.21 0v10.325a2.105 2.105 0 0 1-2.105 2.105Zm-7.355 2.1H44a2.1 2.1 0 0 1 0-4.2h4.21v-6.31a2.1 2.1 0 0 1 4.2 0v7.36a3.15 3.15 0 0 1-3.15 3.15Z" fill="#fff"/><path d="M61.87 32.248h-5.4a2.104 2.104 0 1 1 0-4.21h4.35v-6.17a2.105 2.105 0 0 1 4.21-.002v7.212a3.173 3.173 0 0 1-3.16 3.17Zm8.45-4.21a3.19 3.19 0 0 1-3.19-3.18v-9.3a2.105 2.105 0 0 1 4.21 0v8.28h4.21a2.1 2.1 0 1 1 0 4.2h-5.23Zm-7.39-10.52a2.1 2.1 0 1 0 0-4.2 2.1 2.1 0 0 0 0 4.2Zm6.31 16.83a2.1 2.1 0 1 0 0-4.2 2.1 2.1 0 0 0 0 4.2Z" fill="#fff"/></g><defs><linearGradient id="b" x1="22.499" y1="6.336" x2="22.499" y2="34.399" gradientUnits="userSpaceOnUse"><stop stop-color="#98D700"/><stop offset="1" stop-color="#009A53"/></linearGradient><clipPath id="a"><path fill="#fff" transform="translate(0 .668)" d="M0 0h135v40H0z"/></clipPath></defs></svg>