<svg xmlns="http://www.w3.org/2000/svg" width="17" height="20" viewBox="0 0 12 14" fill="var(--sf-inactive-dark)"><path fill-rule="evenodd" clip-rule="evenodd" d="M9.112 9.23a4.473 4.473 0 0 0 0-6.253 4.351 4.351 0 0 0-6.224 0 4.473 4.473 0 0 0 0 6.253l3.005 3.06a.144.144 0 0 0 .107.043.146.146 0 0 0 .107-.042l3.005-3.06Zm.895.954c2.213-2.254 2.213-5.907 0-8.16a5.595 5.595 0 0 0-8.014 0c-2.213 2.253-2.213 5.906 0 8.16l3.005 3.06a1.4 1.4 0 0 0 2.004 0l3.005-3.06Z"/><path fill-rule="evenodd" clip-rule="evenodd" d="M6 4.891c-.701 0-1.22.571-1.22 1.213 0 .64.519 1.212 1.22 1.212s1.22-.571 1.22-1.212c0-.642-.519-1.213-1.22-1.213Zm0-1.333c-1.38 0-2.5 1.14-2.5 2.546S4.62 8.649 6 8.649s2.5-1.14 2.5-2.545c0-1.406-1.12-2.546-2.5-2.546Z"/></svg>