<svg xmlns="http://www.w3.org/2000/svg" width="8.4375rem" height="2.5625rem" viewBox="0 0 135 41" fill="none"><path d="M130.1 40.668H4.8a4.737 4.737 0 0 1-4.8-4.8v-30.4a4.737 4.737 0 0 1 4.8-4.8h125.4a4.8 4.8 0 0 1 4.8 4.8v30.5a4.865 4.865 0 0 1-4.9 4.7Z" fill="#A6A6A6"/><path d="M130.1 39.669H4.8a3.8 3.8 0 0 1-3.8-3.8v-30.4a3.8 3.8 0 0 1 3.8-3.8h125.4a3.8 3.8 0 0 1 3.8 3.8v30.5a3.938 3.938 0 0 1-3.9 3.7Z" fill="#000"/><path d="M47.37 10.868a2.725 2.725 0 0 1-.7 2 3.111 3.111 0 0 1-5.303-2.495 3.11 3.11 0 0 1 3.103-2.805c.418.005.829.107 1.2.3.357.15.667.391.9.7l-.5.5a1.863 1.863 0 0 0-1.6-.7 1.988 1.988 0 0 0-1.6.7 2.06 2.06 0 0 0-.7 1.7 2.062 2.062 0 0 0 .7 1.7c.435.413 1.001.66 1.6.7a2.191 2.191 0 0 0 1.7-.7 1.656 1.656 0 0 0 .5-1.2h-2.2v-.8h2.9v.4Zm4.6-2.5h-2.7v1.9h2.5v.7h-2.5v1.9h2.7v.8h-3.5v-6h3.5v.7Zm3.3 5.3h-.8v-5.3h-1.7v-.7h4.2v.7h-1.7v5.3Zm4.6 0v-6h.8v6h-.8Zm4.2 0h-.8v-5.3h-1.7v-.7h4.1v.7h-1.7v5.3h.1Zm9.493-.8a3.111 3.111 0 1 1 .9-2.2 2.942 2.942 0 0 1-.9 2.2Zm-3.8-.5c.424.43.996.68 1.6.7a1.988 1.988 0 0 0 1.6-.7c.448-.452.7-1.063.7-1.7a2.06 2.06 0 0 0-.7-1.7 2.357 2.357 0 0 0-1.6-.7 1.988 1.988 0 0 0-1.6.7 2.414 2.414 0 0 0-.7 1.7 2.062 2.062 0 0 0 .7 1.7Zm5.8 1.3v-6h.9l2.9 4.7v-4.7h.8v6h-.8l-3.1-4.9v4.9h-.7Z" fill="#fff" stroke="#fff" stroke-width=".2" stroke-miterlimit="10"/><path d="M68.05 22.468a4.205 4.205 0 0 0-4.3 4.3 4.266 4.266 0 0 0 4.3 4.3 4.205 4.205 0 0 0 4.3-4.3 4.146 4.146 0 0 0-4.3-4.3Zm0 6.8a2.608 2.608 0 0 1 0-5.2 2.42 2.42 0 0 1 2.4 2.6 2.48 2.48 0 0 1-2.4 2.6Zm-9.293-6.8a4.205 4.205 0 0 0-4.3 4.3 4.266 4.266 0 0 0 4.3 4.3 4.205 4.205 0 0 0 4.3-4.3 4.146 4.146 0 0 0-4.3-4.3Zm0 6.8a2.608 2.608 0 0 1 0-5.2 2.42 2.42 0 0 1 2.4 2.6 2.48 2.48 0 0 1-2.4 2.6Zm-11.087-5.5v1.8h4.3a3.782 3.782 0 0 1-1 2.3 4.422 4.422 0 0 1-3.3 1.3 4.654 4.654 0 0 1-4.7-4.8 4.715 4.715 0 0 1 4.7-4.8 4.951 4.951 0 0 1 3.3 1.3l1.3-1.3a6.4 6.4 0 0 0-4.5-1.8 6.743 6.743 0 0 0-6.7 6.6 6.743 6.743 0 0 0 6.7 6.6 5.75 5.75 0 0 0 4.6-1.9 6.023 6.023 0 0 0 1.6-4.2c.021-.37-.012-.74-.1-1.1h-6.2Zm45.366 1.4a3.882 3.882 0 0 0-3.6-2.7 4.026 4.026 0 0 0-4 4.3 4.185 4.185 0 0 0 4.2 4.3 4.1 4.1 0 0 0 3.5-1.9l-1.4-1a2.434 2.434 0 0 1-2.1 1.2 2.168 2.168 0 0 1-2.1-1.3l5.7-2.4-.2-.5Zm-5.8 1.4a2.428 2.428 0 0 1 2.2-2.5 1.767 1.767 0 0 1 1.6.9l-3.8 1.6Zm-4.7 4.1h1.9v-12.5h-1.9v12.5Zm-3-7.3a3.288 3.288 0 0 0-2.3-1 4.3 4.3 0 0 0-4.1 4.3 4.14 4.14 0 0 0 4.1 4.2 2.87 2.87 0 0 0 2.2-1h.1v.6a2.27 2.27 0 0 1-4.4 1l-1.6.7a4.123 4.123 0 0 0 3.8 2.5c2.2 0 4-1.3 4-4.4v-7.6h-1.8v.7Zm-2.2 5.9a2.608 2.608 0 0 1 0-5.2 2.404 2.404 0 0 1 2.3 2.6 2.403 2.403 0 0 1-2.3 2.6Zm24.382-11.1h-4.5v12.5h1.9v-4.7h2.6a3.899 3.899 0 1 0 0-7.8Zm.1 6h-2.7v-4.3h2.7a2.201 2.201 0 0 1 2.2 2.1 2.284 2.284 0 0 1-2.2 2.2Zm11.491-1.8a3.357 3.357 0 0 0-3.3 1.9l1.7.7a1.764 1.764 0 0 1 1.7-.9 1.877 1.877 0 0 1 2 1.6v.1a3.958 3.958 0 0 0-1.9-.5c-1.8 0-3.6 1-3.6 2.8a2.928 2.928 0 0 0 3.1 2.8 2.81 2.81 0 0 0 2.4-1.2h.1v1h1.8v-4.8a3.782 3.782 0 0 0-4-3.5Zm-.2 6.9c-.6 0-1.5-.3-1.5-1.1 0-1 1.1-1.3 2-1.3.59.002 1.172.139 1.7.4a2.327 2.327 0 0 1-2.2 2Zm10.5-6.6-2.1 5.4h-.1l-2.2-5.4h-2l3.3 7.6-1.9 4.2h1.9l5.1-11.8h-2Zm-16.788 8h1.9v-12.5h-1.9v12.5Z" fill="#fff"/><g filter="url(#a)"><path d="M26.955 25.125 11.25 34.19a1.48 1.48 0 0 1-1.163.144l12.767-13.567 4.1 4.357Z" fill="url(#b)"/><path d="m26.955 16.411-4.1 4.357L10.088 7.201a1.48 1.48 0 0 1 1.163.144l15.704 9.066Z" fill="url(#c)"/><path d="M9 8.644v24.249c0 .717.482 1.267 1.087 1.443l12.767-13.568L10.087 7.201A1.496 1.496 0 0 0 9 8.644Z" fill="url(#d)"/><path d="m26.953 16.393-4.1 4.357 4.1 4.357 5.297-3.058c1-.577 1-2.02 0-2.598l-5.297-3.058Z" fill="url(#e)"/></g><defs><linearGradient id="b" x1="24.661" y1="20.455" x2="7.42" y2="-7.195" gradientUnits="userSpaceOnUse"><stop stop-color="#FF3A44"/><stop offset="1" stop-color="#C31162"/></linearGradient><linearGradient id="c" x1="6.951" y1="43.947" x2="14.649" y2="31.556" gradientUnits="userSpaceOnUse"><stop stop-color="#32A071"/><stop offset=".068" stop-color="#2DA771"/><stop offset=".476" stop-color="#15CF74"/><stop offset=".801" stop-color="#06E775"/><stop offset="1" stop-color="#00F076"/></linearGradient><linearGradient id="d" x1="21.579" y1="35.204" x2=".348" y2="29.561" gradientUnits="userSpaceOnUse"><stop stop-color="#00A0FF"/><stop offset=".007" stop-color="#00A1FF"/><stop offset=".26" stop-color="#00BEFF"/><stop offset=".512" stop-color="#00D2FF"/><stop offset=".76" stop-color="#00DFFF"/><stop offset="1" stop-color="#00E3FF"/></linearGradient><linearGradient id="e" x1="33.781" y1="22.745" x2="9.593" y2="22.745" gradientUnits="userSpaceOnUse"><stop stop-color="#FFE000"/><stop offset=".409" stop-color="#FFBD00"/><stop offset=".775" stop-color="orange"/><stop offset="1" stop-color="#FF9C00"/></linearGradient><filter id="a" x="9" y="7.142" width="24" height="27.253" filterUnits="userSpaceOnUse" color-interpolation-filters="sRGB"><feFlood flood-opacity="0" result="BackgroundImageFix"/><feBlend in="SourceGraphic" in2="BackgroundImageFix" result="shape"/><feColorMatrix in="SourceAlpha" values="0 0 0 0 0 0 0 0 0 0 0 0 0 0 0 0 0 0 127 0" result="hardAlpha"/><feOffset dx="-.25" dy="-.25"/><feComposite in2="hardAlpha" operator="arithmetic" k2="-1" k3="1"/><feColorMatrix values="0 0 0 0 0 0 0 0 0 0 0 0 0 0 0 0 0 0 0.2 0"/><feBlend in2="shape" result="effect1_innerShadow"/></filter></defs></svg>