<svg xmlns="http://www.w3.org/2000/svg" width="1.25rem" height="1.25rem" viewBox="0 0 20 20" fill="none"><path d="M16.62 6.605c.01.148.01.296.01.444 0 4.516-3.437 9.72-9.719 9.72a9.653 9.653 0 0 1-5.245-1.534c.275.031.54.042.825.042a6.84 6.84 0 0 0 4.24-1.46 3.422 3.422 0 0 1-3.193-2.368c.211.031.423.053.645.053.307 0 .613-.043.899-.117a3.416 3.416 0 0 1-2.74-3.352V7.99a3.44 3.44 0 0 0 1.545.433A3.413 3.413 0 0 1 2.364 5.58c0-.634.17-1.216.465-1.723A9.71 9.71 0 0 0 9.872 7.43a3.856 3.856 0 0 1-.084-.782 3.414 3.414 0 0 1 3.416-3.416c.983 0 1.871.412 2.495 1.078a6.725 6.725 0 0 0 2.168-.824 3.407 3.407 0 0 1-1.501 1.882 6.848 6.848 0 0 0 1.967-.529 7.343 7.343 0 0 1-1.713 1.766Z" fill="#676A70"/></svg>