<svg xmlns="http://www.w3.org/2000/svg" width="8.4375rem" height="2.5625rem" viewBox="0 0 135 41" fill="none"><path d="M130.1 40.668H4.8a4.737 4.737 0 0 1-4.8-4.8v-30.4a4.737 4.737 0 0 1 4.8-4.8h125.4a4.8 4.8 0 0 1 4.8 4.8v30.5a4.865 4.865 0 0 1-4.9 4.7Z" fill="#A6A6A6"/><path d="M130.1 39.669H4.8a3.8 3.8 0 0 1-3.8-3.8v-30.4a3.8 3.8 0 0 1 3.8-3.8h125.4a3.8 3.8 0 0 1 3.8 3.8v30.5a3.938 3.938 0 0 1-3.9 3.7Z" fill="#000"/><path fill-rule="evenodd" clip-rule="evenodd" d="M100.857 13.703v.02h1.33c.225.001.449-.019.67-.06a1.76 1.76 0 0 0 .57-.24 1.33 1.33 0 0 0 .41-.47c.108-.236.17-.49.18-.75v-.25c.01-.15.01-.3 0-.45a3.155 3.155 0 0 0-.09-.43 1.754 1.754 0 0 0-.16-.38 1.233 1.233 0 0 0-.24-.31 1.38 1.38 0 0 0-.35-.22 1.63 1.63 0 0 0-.47-.09 1.261 1.261 0 0 0-.97.38 1.35 1.35 0 0 0-.29.48 1.288 1.288 0 0 0-.1.52c-.007.205.037.408.13.59a1 1 0 0 0 .37.4c.18.108.382.177.59.2.259.03.521.03.78 0a.445.445 0 0 1-.09.12.607.607 0 0 1-.17.11 1.587 1.587 0 0 1-.3.08 2.993 2.993 0 0 1-.46 0h-1.14a.17.17 0 0 0-.1 0l-1.4-.03a.13.13 0 0 0-.1 0 .165.165 0 0 0-.005.027l-1.185-.025v-.002h-.06a.133.133 0 0 0-.1 0h-.23a.312.312 0 0 1-.12-.05.25.25 0 0 1-.12-.08.38.38 0 0 1-.09-.13.594.594 0 0 1 0-.2v-1h-.83v1.12a.33.33 0 0 1-.07.24.35.35 0 0 1-.19.1 1 1 0 0 1-.31 0h-3.88a.24.24 0 0 1-.13-.07.31.31 0 0 1-.11-.14.63.63 0 0 1 0-.26 1.906 1.906 0 0 1 0-.2v-.26l.06-.25c.07-.08.07-.15.07-.21l-.39-.12-.39-.13c0 .005.005.012.01.021.02.03.051.079-.01.14-.041.04-.042.085-.043.135-.002.046-.003.097-.037.154-.07.12-.07.24-.07.36-.013.12-.013.24 0 .36a1.225 1.225 0 0 0 0 .34c.035.175.11.34.22.48a.986.986 0 0 0 .13.15 1 1 0 0 0 .38.24c.148.052.304.079.46.08h3.7a1.46 1.46 0 0 0 1-.3.803.803 0 0 0 .21.15l.24.09.26.05h.44v-.03h1.276c.014.003.03.003.044 0h.01a.13.13 0 0 0 .1 0h1.16Zm1.65-2.82a.86.86 0 0 1 .23 0 .59.59 0 0 1 .31.06.592.592 0 0 1 .16.23c.038.097.064.198.08.3v.3a1.56 1.56 0 0 1-.86 0 .42.42 0 0 1-.3-.41.41.41 0 0 1 .05-.22.425.425 0 0 1 .13-.16.475.475 0 0 1 .2-.1Z" fill="#fff"/><path d="m102.587 8.213-.58.6.59.6.6-.59-.61-.61Zm-45.843.327a.5.5 0 0 0-.147.353.45.45 0 0 0 .16.32.56.56 0 0 0 .72 0 .45.45 0 0 0 .12-.32.5.5 0 0 0-.853-.353Zm-.097 5.133h.85v-3.8h-.85v3.8Zm-2.98.05h-.82v-4.71h.82v4.71Zm-1.71-.2a2.66 2.66 0 0 1-.16.82 1.869 1.869 0 0 1-.41.61 1.72 1.72 0 0 1-.62.39 2.41 2.41 0 0 1-.83.14h-.41v-.82h.41a2.12 2.12 0 0 0 .54-.06.83.83 0 0 0 .38-.21.91.91 0 0 0 .22-.37c.047-.186.07-.377.07-.57v-2h.81v2.07Zm-1-3.47.59-.6.6.6-.6.6-.59-.6Z" fill="#fff"/><path fill-rule="evenodd" clip-rule="evenodd" d="M62.507 11.253c.008.454-.08.904-.26 1.32a1.93 1.93 0 0 1-.74.87 2.2 2.2 0 0 1-2.22 0 1.91 1.91 0 0 1-.75-.86 3.001 3.001 0 0 1-.27-1.3v-.33a3.204 3.204 0 0 1 .26-1.32 2.09 2.09 0 0 1 .75-.88 2.2 2.2 0 0 1 2.22 0c.325.21.582.508.74.86.19.42.283.88.27 1.34v.3Zm-.89-.3a2.269 2.269 0 0 0-.32-1.3 1.049 1.049 0 0 0-.91-.45 1 1 0 0 0-.9.45 2.22 2.22 0 0 0-.34 1.3v.29c-.024.457.091.91.33 1.3a1.06 1.06 0 0 0 .92.46 1 1 0 0 0 .9-.45c.238-.394.35-.85.32-1.31v-.29Z" fill="#fff"/><path d="M65.922 12.073c.042.091.061.19.055.29a.609.609 0 0 1-.19.49 1.08 1.08 0 0 1-.7.19 1.28 1.28 0 0 1-.83-.24.821.821 0 0 1-.28-.67h-.89c-.008.3.08.594.25.84.19.25.442.446.73.57.317.132.657.2 1 .2a2.14 2.14 0 0 0 1.33-.37 1.21 1.21 0 0 0 .49-1 1.41 1.41 0 0 0-.17-.69 1.55 1.55 0 0 0-.53-.52 3.997 3.997 0 0 0-1-.4 2.902 2.902 0 0 1-.85-.37.54.54 0 0 1-.26-.47.63.63 0 0 1 .24-.52 1.09 1.09 0 0 1 .67-.18c.26-.018.516.06.72.22a.82.82 0 0 1 .25.63h.88a1.492 1.492 0 0 0-.23-.8 1.58 1.58 0 0 0-.66-.56 2.1 2.1 0 0 0-.95-.2 2 2 0 0 0-1.31.4 1.24 1.24 0 0 0-.5 1 1.3 1.3 0 0 0 .7 1.14c.314.183.65.324 1 .42.304.071.592.196.85.37.08.06.143.14.185.23Z" fill="#fff"/><path fill-rule="evenodd" clip-rule="evenodd" d="M73.057 13.723h-.09a2.638 2.638 0 0 1-.49 0 2.005 2.005 0 0 1-.43-.15 1.452 1.452 0 0 1-.36-.25 1.302 1.302 0 0 1-.25-.37.8.8 0 0 1-.2.21 1.2 1.2 0 0 1-.27.16 1.4 1.4 0 0 1-.29.09h-.3a1.331 1.331 0 0 1-.49-.09 1.15 1.15 0 0 1-.41-.26 1.203 1.203 0 0 1-.28-.41 1.352 1.352 0 0 1-.11-.55 1.381 1.381 0 0 1 .14-.62c.09-.174.209-.333.35-.47a2.46 2.46 0 0 1 .52-.34c.193-.093.39-.177.59-.25l-.07-.31.79-.19.6 2.32a.73.73 0 0 0 .17.34.816.816 0 0 0 .26.2.71.71 0 0 0 .28.09h.34v.08h.77c.232 0 .463-.023.69-.07a5.65 5.65 0 0 0 .71-.17c.23-.058.454-.135.67-.23.192-.072.379-.155.56-.25l-.33-.1-.39-.18-.36-.1-.33-.09-.29-.06a.72.72 0 0 0-.19 0h-.13a.24.24 0 0 0-.11.06.442.442 0 0 0-.08.11.482.482 0 0 0-.08.16l-.75-.23c.04-.127.09-.25.15-.37.059-.11.133-.21.22-.3a.93.93 0 0 1 .69-.27l.26.09.35.1.43.13.46.16.44.16.39.14.29.11h.15l.11.67-.11.07-.24.16a.562.562 0 0 0 .1.15l.14.08h.83v.044l1.095.023a.19.19 0 0 1 .005-.027.13.13 0 0 1 .1 0l1.4.03a.17.17 0 0 1 .1 0h.21c.103.013.207.013.31 0a.67.67 0 0 0 .19-.1.418.418 0 0 0 .09-.16 1.214 1.214 0 0 0 0-.2v-1h.81v.94a.51.51 0 0 0 .13.38.59.59 0 0 0 .41.13h.12a.37.37 0 0 0 .25-.22.58.58 0 0 0 .05-.25v-1h.81v.94a.5.5 0 0 0 .13.39.572.572 0 0 0 .45.15.41.41 0 0 0 .16 0 .29.29 0 0 0 .14-.08.558.558 0 0 0 .1-.15.65.65 0 0 0 0-.22v-1h.81v1a.472.472 0 0 0 .15.37.78.78 0 0 0 .45.11h.19v-.03h1a.47.47 0 0 0 .15-.06.638.638 0 0 0 .13-.15.678.678 0 0 0 0-.27c.005-.06.005-.12 0-.18v-.69c0-.07 0-.14-.05-.2a1.09 1.09 0 0 0 0-.14l.64-.31v.31c.007.09.007.18 0 .27l.06.31v.55c.002.2-.035.396-.11.58-.07.154-.169.293-.29.41a1.27 1.27 0 0 1-.41.23 1.161 1.161 0 0 1-.45.08h-.54v.1h-.32a1.998 1.998 0 0 1-.58-.07 1.071 1.071 0 0 1-.43-.24 1.09 1.09 0 0 1-.39.23 1.211 1.211 0 0 1-.46.08 1.7 1.7 0 0 1-.53-.07 1.061 1.061 0 0 1-.41-.24 1.478 1.478 0 0 1-.38.23 1.31 1.31 0 0 1-.43.08 1.46 1.46 0 0 1-.95-.3 1.59 1.59 0 0 1-1 .3h-.42v-.09h-1.15a.13.13 0 0 1-.1 0h-.01a.111.111 0 0 1-.044 0h-1.306a.11.11 0 0 1-.072-.01h-.408a1.481 1.481 0 0 1-.7-.17 1.22 1.22 0 0 1-.48-.5l-.54.24a6.08 6.08 0 0 1-.61.22c-.21.06-.43.11-.65.15-.22.04-.445.06-.67.06h-.77v.03Zm-2-1.62a.588.588 0 0 0 0-.19 1.23 1.23 0 0 0 0-.19c0-.07 0-.15-.07-.23-.033-.038-.035-.08-.036-.123-.001-.046-.002-.095-.044-.147a2.64 2.64 0 0 0-.79.38.63.63 0 0 0-.27.52.371.371 0 0 0 .06.21.36.36 0 0 0 .14.16.56.56 0 0 0 .19.09c.07.015.141.015.21 0a1 1 0 0 0 .41-.14.53.53 0 0 0 .19-.34h.01Z" fill="#fff"/><path d="m74.407 8.963-.58.59.59.6.6-.59-.61-.6Zm13.4.08-.59.59.59.6.6-.59-.6-.6Zm5.85 2.15-.55-.55.54-.57.56.57-.55.55Zm1.37 0-.55-.56.54-.56.57.56-.56.56Zm11.37 2.53a3.797 3.797 0 0 1-.62 0 1.569 1.569 0 0 1-.43-.13.78.78 0 0 1-.28-.22 1.108 1.108 0 0 1-.17-.32 2.259 2.259 0 0 1-.07-.4v-3.64h.82v3.09c-.012.14-.012.28 0 .42a.443.443 0 0 0 .09.25.454.454 0 0 0 .23.11c.143.013.287.013.43 0v.07h1.41a.47.47 0 0 0 .15-.06.944.944 0 0 0 .13-.15.675.675 0 0 0 .05-.27c.005-.06.005-.12 0-.18v-.22c.005-.08.005-.16 0-.24v-.57l.6-.31a.28.28 0 0 1 0 .1v1.34c.002.2-.035.396-.11.58-.07.154-.169.293-.29.41-.121.102-.26.18-.41.23a1.189 1.189 0 0 1-.45.08h-1.08v.03Zm-.02 1.23.6.52.5-.52-.56-.56-.54.56Zm1.36 0 .61.52.49-.52-.56-.56-.54.56Zm3.85-1.43c-.013.281-.07.558-.17.82a1.835 1.835 0 0 1-.4.61c-.18.174-.394.307-.63.39a2.37 2.37 0 0 1-.83.14h-.4v-.82h.4c.185.003.37-.017.55-.06a.748.748 0 0 0 .37-.21.902.902 0 0 0 .22-.37c.042-.187.055-.379.04-.57v-2h.82l.03 2.07Zm1.82.21c.183-.014.363-.044.54-.09.2-.034.391-.109.56-.22a1.008 1.008 0 0 0 .407-.553c.037-.128.049-.263.033-.397a1.347 1.347 0 0 0-.21-.52l-.46-.46-.26-.39-.17-.25-.1-.15v-.07l-.23-.34-.68.45 1.22 1.77a.493.493 0 0 1 .082.205.131.131 0 0 1-.012.055.328.328 0 0 1-.26.19 1.431 1.431 0 0 1-.47 0 3.36 3.36 0 0 1-.58-.1 5.806 5.806 0 0 1-.59-.17l-.23.78.39.12.27.08.26.06h.49Zm-45.285 3.47h3.43a.35.35 0 0 1 .35.35v12.15a.39.39 0 0 1-.39.39h-3.35a.4.4 0 0 1-.4-.39v-12.15a.36.36 0 0 1 .36-.35Zm31.15 8.84h15.08a.56.56 0 0 1 .49.82l-.86 1.74a2.813 2.813 0 0 1-2.49 1.51h-11.66a.89.89 0 0 1-.81-.53l-.94-2.12a6.61 6.61 0 0 1-5.3 2.62h-1a.889.889 0 0 1-.8-.49l-.92-1.84a6.64 6.64 0 0 1-5.1 2.36h-11.48a.44.44 0 0 1-.4-.63l1.32-2.64a1.41 1.41 0 0 1 1.26-.78h9.28a2.39 2.39 0 0 0 2.42-2.38v-2.07a.48.48 0 0 1 .48-.47h3.23a.471.471 0 0 1 .48.47v2.1a6.162 6.162 0 0 1-.34 2 .25.25 0 0 0 .24.33h1.39a2.4 2.4 0 0 0 2.4-2.38v-2.1a.47.47 0 0 1 .47-.47h3.2a.47.47 0 0 1 .47.47v2.07a6.162 6.162 0 0 1-.35 2.07.249.249 0 0 0 .121.314.248.248 0 0 0 .119.026Zm-32.7 3.42-1.32-2.64a1.411 1.411 0 0 0-1.26-.78h-13.85a.57.57 0 0 0-.51.82l.89 1.73a2.78 2.78 0 0 0 2.48 1.5h13.17a.44.44 0 0 0 .4-.63Zm-7.31 2.01h-2.07a.37.37 0 0 0-.37.36v2a.37.37 0 0 0 .37.36h2.07a.37.37 0 0 0 .37-.36v-2a.37.37 0 0 0-.37-.36Zm37.96 0h-5.58a.37.37 0 0 0-.37.36v2a.37.37 0 0 0 .37.36h5.58a.37.37 0 0 0 .37-.36v-2a.37.37 0 0 0-.37-.36Zm-36.29 0h5.58a.37.37 0 0 1 .37.36v2a.37.37 0 0 1-.37.36h-5.58a.37.37 0 0 1-.37-.36v-2a.37.37 0 0 1 .37-.36Zm22.48 0h-2.06a.361.361 0 0 0-.37.36v2a.36.36 0 0 0 .37.36h2.06a.36.36 0 0 0 .37-.36v-2a.36.36 0 0 0-.37-.36ZM28.256 7.144c-5.79.11-6.17 5.17-6.17 5.17 5.82.49 6.17-5.17 6.17-5.17Zm-1.92 11.64a7 7 0 0 1 1.55 8.39c3.73-6.23 2.32-11.13 2.32-11.13-8.1-4.06-12.65-.6-12.65-.6a13.1 13.1 0 0 1 8.78 3.34Z" fill="#fff"/><path d="M17.166 20.123a6.9 6.9 0 0 1 8.35-1.56c-6.2-3.75-11.07-2.34-11.07-2.34-4 8.15-.6 12.72-.6 12.72a13.23 13.23 0 0 1 3.32-8.82Z" fill="#fff"/><path d="M16.403 25.278a7 7 0 0 0 2.203 3.925 13.08 13.08 0 0 0 8.77 3.35s-4.54 3.46-12.64-.6c0 0-1.4-4.91 2.31-11.13a7 7 0 0 0-.643 4.455Z" fill="#fff"/><path d="M31.136 19.024a13.21 13.21 0 0 1-3.33 8.82 6.89 6.89 0 0 1-8.34 1.56c6.19 3.75 11.07 2.33 11.07 2.33 4.04-8.14.6-12.71.6-12.71Z" fill="#fff"/></svg>