<svg width="17" height="18" viewBox="0 0 17 18" fill="var(--sf-alert-main)" style="margin:0 .4rem 0 .6rem;width:20px"><path d="M8.5.666c4.595 0 8.333 3.738 8.333 8.333 0 4.595-3.738 8.334-8.333 8.334-4.595 0-8.333-3.739-8.333-8.334S3.905.666 8.5.666Zm0 1.667c-3.676 0-6.667 2.995-6.667 6.666 0 3.672 2.99 6.667 6.667 6.667 3.676 0 6.666-2.995 6.666-6.667 0-3.671-2.99-6.666-6.666-6.666Zm0 8.75c.58 0 1.041.466 1.041 1.041A1.04 1.04 0 0 1 8.5 13.166a1.04 1.04 0 0 1-1.042-1.042A1.04 1.04 0 0 1 8.5 11.083Zm0-6.232c.461 0 .835.373.836.834v3.339l-.005.097a.827.827 0 0 1-.82.73h-.014a.826.826 0 0 1-.827-.827V5.681a.83.83 0 0 1 .83-.83Z"/></svg>